<svg xmlns="http://www.w3.org/2000/svg" xmlns:svg="http://www.w3.org/2000/svg" xmlns:xlink="http://www.w3.org/1999/xlink" width="540" height="250"><g class="layer"><title>Layer 1</title><rect id="svg_4" width="531" height="239" x="4" y="5" fill="#fff" stroke="#666" stroke-linecap="round" stroke-linejoin="round" rx="10" ry="10" transform="matrix(1 0 0 1 0 0)"/><rect id="svg_6" width="529" height="57" x="5" y="7" fill="#e5e5e5" stroke="#000" stroke-linecap="round" stroke-linejoin="round" stroke-width="0" rx="10" ry="10"/><image id="svg_3" width="104" height="104" x="422" y="78" transform="matrix(1 0 0 1 0 0)" xlink:href="https://www.kaggle.com/static/images/tiers/expert@192.png"/><image id="svg_2" width="123" height="41.46" x="13" y="15" xlink:href="https://www.kaggle.com/static/images/site-logo.svg"/><line id="svg_7" x1="7" x2="534" y1="65" y2="66" fill="none" stroke="#000" stroke-linecap="round" stroke-linejoin="round" transform="matrix(1 0 0 1 0 0)"/><image id="svg_10" width="171" height="171" x="6" y="71" transform="matrix(1 0 0 1 0 0)" xlink:href="https://storage.googleapis.com/kaggle-avatars/images/6294032-kg.png"/><text id="svg_12" x="189.67" y="106" fill="#000" stroke="#666" stroke-linecap="round" stroke-linejoin="round" stroke-width="0" font-family="Sans-serif" font-size="19" font-weight="bold" text-anchor="start" transform="matrix(1 0 0 1 0 0)" xml:space="preserve">Chien-Hsiang, Hung</text><text id="svg_14" x="189" y="137" fill="#333" stroke="#666" stroke-linecap="round" stroke-linejoin="round" stroke-width="0" font-family="Sans-serif" font-size="17" text-anchor="start" transform="matrix(1 0 0 1 0 0)" xml:space="preserve">IT manger, DDI at WAM</text><text id="svg_15" x="189.67" y="178" fill="#333" stroke="#666" stroke-linecap="round" stroke-linejoin="round" stroke-width="0" font-family="Sans-serif" font-size="17" text-anchor="start" xml:space="preserve">Taipei, Taiwan</text><text id="svg_1" x="189" y="217" fill="#999" stroke="#666" stroke-linecap="round" stroke-linejoin="round" stroke-width="0" font-family="Sans-serif" font-size="14" text-anchor="start" transform="matrix(1 0 0 1 0 0)" xml:space="preserve">Joined at 2022-12-02</text><text id="svg_5" x="474" y="204" fill="#95628f" stroke="#000" stroke-linecap="round" stroke-linejoin="round" stroke-width="0" font-family="Sans-serif" font-size="16" font-weight="bold" text-anchor="middle" transform="matrix(1 0 0 1 0 0)" xml:space="preserve">Competitions</text><text id="svg_8" x="472.95" y="225.5" fill="#95628f" stroke="#000" stroke-linecap="round" stroke-linejoin="round" stroke-width="0" font-family="Sans-serif" font-size="16" font-weight="bold" text-anchor="middle" xml:space="preserve">Expert</text></g></svg>