<svg xmlns="http://www.w3.org/2000/svg" xmlns:svg="http://www.w3.org/2000/svg" xmlns:xlink="http://www.w3.org/1999/xlink" width="540" height="250"><g class="layer"><title>Layer 1</title><rect id="svg_4" width="531" height="239" x="4" y="5" fill="#fff" stroke="#666" stroke-linecap="round" stroke-linejoin="round" rx="10" ry="10" transform="matrix(1 0 0 1 0 0)"/><rect id="svg_6" width="529" height="57" x="5" y="7" fill="#e5e5e5" stroke="#000" stroke-linecap="round" stroke-linejoin="round" stroke-width="0" rx="10" ry="10"/><image id="svg_2" width="123" height="41.46" x="13" y="15" xlink:href="https://www.kaggle.com/static/images/site-logo.svg"/><line id="svg_7" x1="7" x2="534" y1="65" y2="66" fill="none" stroke="#000" stroke-linecap="round" stroke-linejoin="round" transform="matrix(1 0 0 1 0 0)"/><image id="svg_10" width="171" height="171" x="6" y="71" transform="matrix(1 0 0 1 0 0)" xlink:href="https://storage.googleapis.com/kaggle-avatars/images/6294032-kg.png"/><text id="svg_12" x="189.67" y="98" fill="#000" stroke="#666" stroke-linecap="round" stroke-linejoin="round" stroke-width="0" font-family="Sans-serif" font-size="19" font-weight="bold" text-anchor="start" transform="matrix(1 0 0 1 0 0)" xml:space="preserve">Chien-Hsiang, Hung</text><text id="svg_1" x="392" y="28" fill="#999" stroke="#666" stroke-linecap="round" stroke-linejoin="round" stroke-width="0" font-family="Sans-serif" font-size="14" text-anchor="start" xml:space="preserve">Joined at 2022-12-02</text><image id="svg_3" width="46" height="46" x="210" y="122" xlink:href="https://www.kaggle.com/static/images/tiers/expert@192.png"/><image id="svg_8" width="46" height="46" x="295" y="122" xlink:href="https://www.kaggle.com/static/images/tiers/expert@192.png"/><image id="svg_9" width="46" height="46" x="380" y="122" xlink:href="https://www.kaggle.com/static/images/tiers/expert@192.png"/><image id="svg_11" width="46" height="46" x="465" y="122" xlink:href="https://www.kaggle.com/static/images/tiers/expert@192.png"/><text id="svg_5" x="235" y="197" fill="#95628f" stroke="#000" stroke-linecap="round" stroke-linejoin="round" stroke-width="0" font-family="Sans-serif" font-size="12" font-weight="bold" text-anchor="middle" transform="matrix(1 0 0 1 0 0)" xml:space="preserve">Competitions</text><text id="svg_13" x="320.84" y="197" fill="#95628f" stroke="#000" stroke-linecap="round" stroke-linejoin="round" stroke-width="0" font-family="Sans-serif" font-size="12" font-weight="bold" text-anchor="middle" transform="matrix(1 0 0 1 0 0)" xml:space="preserve">Datasets</text><text id="svg_14" x="399.84" y="197" fill="#95628f" stroke="#000" stroke-linecap="round" stroke-linejoin="round" stroke-width="0" font-family="Sans-serif" font-size="12" font-weight="bold" text-anchor="middle" transform="matrix(1 0 0 1 0 0)" xml:space="preserve">Notebooks</text><text id="svg_15" x="486.84" y="197" fill="#95628f" stroke="#000" stroke-linecap="round" stroke-linejoin="round" stroke-width="0" font-family="Sans-serif" font-size="12" font-weight="bold" text-anchor="middle" transform="matrix(1 0 0 1 0 0)" xml:space="preserve">Discussion</text><text id="svg_16" x="300" y="230" fill="#333" stroke="#666" stroke-linecap="round" stroke-linejoin="round" stroke-width="0" font-family="Sans-serif" font-size="15" text-anchor="start" xml:space="preserve">Followers 55</text><text id="svg_17" x="415" y="230" fill="#333" stroke="#666" stroke-linecap="round" stroke-linejoin="round" stroke-width="0" font-family="Sans-serif" font-size="15" text-anchor="start" xml:space="preserve">Following 55</text></g></svg>